<svg width="26" height="26" viewBox="0 0 26 26" fill="none" xmlns="http://www.w3.org/2000/svg">
<path d="M14.6573 14.7117L11.2773 11.2883" stroke="black" stroke-width="1.5" stroke-linecap="round" stroke-linejoin="round"/>
<path d="M22.75 9.72827L17.875 14.6033" stroke="black" stroke-width="1.5" stroke-linecap="round" stroke-linejoin="round"/>
<path d="M3.25 16.2609L8.25499 11.2559" stroke="black" stroke-width="1.5" stroke-linecap="round" stroke-linejoin="round"/>
<path d="M18.4167 3.25H7.58333C5.1901 3.25 3.25 5.1901 3.25 7.58333V18.4167C3.25 20.8099 5.1901 22.75 7.58333 22.75H18.4167C20.8099 22.75 22.75 20.8099 22.75 18.4167V7.58333C22.75 5.1901 20.8099 3.25 18.4167 3.25Z" stroke="black" stroke-width="1.5" stroke-linecap="round" stroke-linejoin="round"/>
<path d="M11.5375 10.075C11.5375 10.4867 11.3859 10.8767 11.1367 11.1583C10.8334 11.5483 10.3675 11.7867 9.82584 11.7867C9.23001 11.7867 8.72085 11.4942 8.41752 11.0392C8.22252 10.7683 8.125 10.4325 8.125 10.0858C8.125 9.14333 8.88335 8.38501 9.83669 8.38501C10.79 8.38501 11.5375 9.14333 11.5375 10.0858V10.075Z" stroke="#FC550D" stroke-width="1.5" stroke-linecap="round" stroke-linejoin="round"/>
<path d="M17.8754 15.9249C17.8754 16.8674 17.117 17.6258 16.1637 17.6258C15.2104 17.6258 14.4629 16.8674 14.4629 15.9249C14.4629 15.5458 14.5929 15.1991 14.8095 14.9175C15.1129 14.495 15.6004 14.2241 16.1745 14.2241C16.7487 14.2241 17.2795 14.5166 17.5829 14.9716C17.7779 15.2425 17.8754 15.5783 17.8754 15.9249Z" stroke="#FC550D" stroke-width="1.5" stroke-linecap="round" stroke-linejoin="round"/>
</svg>
